<?xml version="1.0" encoding="utf-8"?>
<!-- Generator: Adobe Illustrator 16.0.0, SVG Export Plug-In . SVG Version: 6.00 Build 0)  -->
<!DOCTYPE svg PUBLIC "-//W3C//DTD SVG 1.1//EN" "http://www.w3.org/Graphics/SVG/1.1/DTD/svg11.dtd">
<svg version="1.1" id="Layer_1" xmlns="http://www.w3.org/2000/svg" xmlns:xlink="http://www.w3.org/1999/xlink" x="0px" y="0px"
	 width="128px" height="128px" viewBox="0 0 128 128" enable-background="new 0 0 128 128" xml:space="preserve">
<g>
	<g>
		<g>
			<g>
				<g>
					<path fill="#282D33" d="M9.854,98.191C2.256,86.113-1.11,71.587,0.378,57.286c1.51-14.512,7.997-28.198,18.263-38.539
						C30.643,6.658,46.601,0.001,63.575,0C80.55,0,96.51,6.657,108.513,18.747l-2.843,2.823
						C94.424,10.244,79.475,4.007,63.575,4.007C47.676,4.008,32.729,10.245,21.485,21.57C1.94,41.255-1.524,72.581,13.246,96.057
						L9.854,98.191z"/>
				</g>
				<g>
					<polygon fill="#282D33" points="109.322,24.175 86.192,24.165 86.194,20.157 105.314,20.166 105.314,0.888 109.322,0.888 					
						"/>
				</g>
			</g>
			<g>
				<g>
					<path fill="#282D33" d="M64.425,128c-16.975,0-32.935-6.657-44.939-18.747l2.844-2.823
						c11.246,11.326,26.196,17.563,42.095,17.563c15.898-0.001,30.846-6.238,42.091-17.563c19.545-19.686,23.009-51.014,8.236-74.49
						l3.391-2.134c7.601,12.078,10.967,26.605,9.479,40.907c-1.511,14.512-7.997,28.199-18.264,38.54
						C97.356,121.342,81.398,127.999,64.425,128z"/>
				</g>
				<g>
					<polygon fill="#282D33" points="22.685,127.11 18.678,127.11 18.678,103.826 41.807,103.835 41.805,107.842 22.685,107.835 
											"/>
				</g>
			</g>
		</g>
	</g>
	<g>
		<g>
			<g>
				<g>
					<path fill="#282D33" d="M78.407,84.217l-3.997-0.289c0.255-3.535,1.085-6.265,2.465-8.111
						c8.573-11.123,8.866-21.525,8.867-21.627c0-11.737-9.475-21.286-21.12-21.286c-11.646,0-21.121,9.549-21.121,21.287
						c0,0.102,0.288,10.508,8.847,21.602c1.396,1.874,2.212,4.606,2.449,8.146l-3.999,0.267c-0.179-2.68-0.763-4.809-1.644-5.992
						c-9.398-12.18-9.661-23.907-9.661-24.022c0-13.947,11.271-25.294,25.127-25.294c13.855,0,25.127,11.347,25.127,25.294
						c0,0.115-0.263,11.829-9.683,24.049C79.196,79.404,78.601,81.535,78.407,84.217z"/>
				</g>
				<g>
					<g>
						
							<rect x="46.812" y="69.205" transform="matrix(0.1041 0.9946 -0.9946 0.1041 124.2898 4.4382)" fill="#282D33" width="25.739" height="4.008"/>
					</g>
					<g>
						
							<rect x="67.561" y="58.339" transform="matrix(0.9946 0.1038 -0.1038 0.9946 7.7691 -6.8375)" fill="#282D33" width="4.007" height="25.742"/>
					</g>
				</g>
				<g>
					<g>
						<rect x="49.587" y="82.346" fill="#282D33" width="30.072" height="4.007"/>
					</g>
					<g>
						<rect x="50.692" y="92.16" fill="#282D33" width="27.861" height="4.007"/>
					</g>
				</g>
				<g>
					<g>
						<rect x="56.157" y="101.794" fill="#282D33" width="16.931" height="4.007"/>
					</g>
				</g>
			</g>
		</g>
	</g>
</g>
</svg>
